<svg width="271" height="271" viewBox="0 0 271 271" fill="none" xmlns="http://www.w3.org/2000/svg">
<path d="M133.859 247.764C196.884 247.764 247.976 196.672 247.976 133.647C247.976 70.6227 196.884 19.5311 133.859 19.5311C70.8344 19.5311 19.7428 70.6227 19.7428 133.647C19.7428 196.672 70.8344 247.764 133.859 247.764Z" fill="#EEEDF2"/>
<path d="M120.997 233.526L155.296 174.086C156.778 171.545 155.878 168.264 153.337 166.782L69.1791 118.192C66.6385 116.71 63.3568 117.61 61.8748 120.15L27.5764 179.59C26.0944 182.131 26.9942 185.413 29.5348 186.895L113.693 235.484C116.234 236.913 119.515 236.066 120.997 233.526Z" fill="#D3D5E7"/>
<path d="M108.876 211.983L162.653 169.375C164.982 167.522 165.352 164.188 163.5 161.912L103.16 85.6932C101.307 83.3643 97.9729 82.9938 95.6969 84.8463L41.9203 127.455C39.5914 129.307 39.2209 132.642 41.0735 134.918L101.413 211.137C103.213 213.413 106.547 213.836 108.876 211.983Z" fill="#D3D5E7"/>
<path d="M173.239 186.948H104.589C101.625 186.948 99.2432 184.566 99.2432 181.602V84.4229C99.2432 81.4588 101.625 79.077 104.589 79.077H173.239C176.203 79.077 178.585 81.4588 178.585 84.4229V181.602C178.585 184.566 176.203 186.948 173.239 186.948Z" fill="#D3D5E7"/>
<path d="M167.258 208.649L114.646 164.558C112.37 162.653 112.105 159.318 114.011 157.042L176.468 82.5703C178.373 80.2943 181.708 80.0297 183.984 81.9352L236.596 126.026C238.872 127.931 239.136 131.266 237.231 133.542L174.774 208.014C172.868 210.237 169.534 210.554 167.258 208.649Z" fill="#D3D5E7"/>
<path d="M155.19 228.709L126.079 166.57C124.808 163.923 125.973 160.747 128.619 159.477L216.641 118.245C219.288 116.975 222.464 118.139 223.734 120.786L252.845 182.925C254.115 185.572 252.951 188.747 250.305 190.018L162.282 231.303C159.583 232.52 156.407 231.409 155.19 228.709Z" fill="#D3D5E7"/>
<path d="M114.963 238.978L149.262 179.538C150.744 176.997 149.844 173.715 147.303 172.233L63.1451 123.644C60.6045 122.162 57.3228 123.062 55.8408 125.602L21.5953 185.042C20.1133 187.583 21.0131 190.865 23.5537 192.347L107.712 240.936C110.253 242.418 113.481 241.518 114.963 238.978Z" fill="#D3D5E7"/>
<path fill-rule="evenodd" clip-rule="evenodd" d="M63.9419 122.27C63.943 122.271 63.9441 122.272 63.9452 122.272L148.1 170.86L148.103 170.862C151.384 172.775 152.566 177.02 150.636 180.334C150.635 180.335 150.634 180.336 150.633 180.338L116.337 239.774L116.335 239.778C114.425 243.051 110.237 244.244 106.916 242.31C106.915 242.309 106.913 242.308 106.912 242.308L22.7567 193.72L22.7536 193.718C19.4733 191.805 18.2911 187.56 20.2215 184.246C20.2222 184.245 20.223 184.243 20.2237 184.242L54.4671 124.806L54.4692 124.802C56.3829 121.522 60.6278 120.339 63.9419 122.27ZM57.2144 126.399C57.2137 126.4 57.2131 126.401 57.2124 126.402L22.9691 185.839L22.9669 185.842C21.9369 187.608 22.5535 189.923 24.3511 190.973C24.352 190.974 24.3529 190.974 24.3538 190.975L108.506 239.561L108.509 239.563L108.512 239.564C110.271 240.591 112.535 239.985 113.59 238.181C113.59 238.18 113.591 238.179 113.592 238.178L147.888 178.741L147.89 178.737C148.92 176.972 148.303 174.657 146.506 173.606C146.505 173.606 146.504 173.605 146.503 173.605L62.3481 125.017L62.345 125.015C60.5795 123.985 58.2651 124.602 57.2144 126.399Z" fill="#1E247E"/>
<path fill-rule="evenodd" clip-rule="evenodd" d="M25.3691 186.588C25.6847 186.772 25.7914 187.177 25.6072 187.493C25.4221 187.81 25.5238 188.2 25.8455 188.388C26.1611 188.572 26.2677 188.977 26.0836 189.292C25.8995 189.608 25.4944 189.715 25.1787 189.531C24.2301 188.977 23.9084 187.779 24.4642 186.826C24.6484 186.51 25.0535 186.404 25.3691 186.588Z" fill="#1E247E"/>
<path d="M107.765 213.571L161.594 170.963C163.923 169.11 164.294 165.776 162.441 163.5L102.101 87.2811C100.249 84.9522 96.9143 84.5817 94.6383 86.4342L40.8088 129.043C38.4799 130.895 38.1094 134.23 39.9619 136.506L100.302 212.724C102.101 215.053 105.489 215.424 107.765 213.571Z" fill="#F0C330"/>
<path fill-rule="evenodd" clip-rule="evenodd" d="M93.6448 85.1955C96.6165 82.7847 100.952 83.2854 103.344 86.2926L103.346 86.2955L163.673 162.497C163.675 162.5 163.677 162.503 163.68 162.506C166.091 165.478 165.59 169.813 162.583 172.206L108.767 214.803C108.764 214.805 108.761 214.808 108.758 214.81C105.8 217.21 101.402 216.736 99.0515 213.703C99.0494 213.701 99.0474 213.698 99.0453 213.695L38.7304 137.508C38.728 137.505 38.7257 137.502 38.7233 137.499C36.3124 134.528 36.8131 130.192 39.8203 127.8L93.6448 85.1955ZM100.858 88.2681C99.5467 86.6218 97.2203 86.38 95.6407 87.6657L95.6323 87.6725L41.7973 130.285C41.7966 130.286 41.7959 130.286 41.7951 130.287C40.1494 131.598 39.9079 133.924 41.1934 135.503L41.2002 135.512L101.553 211.746L101.558 211.754C102.806 213.369 105.171 213.635 106.762 212.34L106.771 212.333L160.606 169.72C160.606 169.72 160.606 169.72 160.606 169.72C162.254 168.409 162.496 166.082 161.21 164.502L161.203 164.494L100.859 88.2696C100.858 88.2691 100.858 88.2686 100.858 88.2681Z" fill="#1E247E"/>
<path fill-rule="evenodd" clip-rule="evenodd" d="M43.2387 131.392C43.4615 131.681 43.4073 132.097 43.1177 132.319C42.7212 132.624 42.6739 133.201 42.9579 133.542C43.1918 133.822 43.1539 134.239 42.8732 134.473C42.5925 134.707 42.1753 134.669 41.9414 134.389C41.1668 133.459 41.3312 132.024 42.3109 131.271C42.6005 131.048 43.0159 131.102 43.2387 131.392Z" fill="#1E247E"/>
<path d="M167.258 192.452H98.608C95.6439 192.452 93.2621 190.071 93.2621 187.106V89.9276C93.2621 86.9635 95.6439 84.5817 98.608 84.5817H167.258C170.222 84.5817 172.604 86.9635 172.604 89.9276V187.106C172.551 190.071 170.169 192.452 167.258 192.452Z" fill="#69AEF8"/>
<path fill-rule="evenodd" clip-rule="evenodd" d="M98.608 86.1696C96.5209 86.1696 94.85 87.8405 94.85 89.9276V187.106C94.85 189.194 96.5209 190.864 98.608 190.864H167.258C169.273 190.864 170.971 189.21 171.016 187.091V89.9276C171.016 87.8405 169.345 86.1696 167.258 86.1696H98.608ZM91.6742 89.9276C91.6742 86.0865 94.767 82.9938 98.608 82.9938H167.258C171.099 82.9938 174.192 86.0865 174.192 89.9276V187.121L174.191 187.135C174.123 190.938 171.061 194.04 167.258 194.04H98.608C94.767 194.04 91.6742 190.948 91.6742 187.106V89.9276Z" fill="#1E247E"/>
<g opacity="0.3">
<path d="M133.594 117.292H105.012C104.166 117.292 103.425 116.604 103.425 115.704V110.358C103.425 109.512 104.113 108.771 105.012 108.771H133.594C134.441 108.771 135.182 109.459 135.182 110.358V115.704C135.129 116.604 134.441 117.292 133.594 117.292Z" fill="white"/>
<path d="M145.08 104.536H105.224C104.219 104.536 103.372 103.742 103.372 102.684V97.867C103.372 96.8613 104.166 96.0145 105.224 96.0145H145.08C146.086 96.0145 146.933 96.8084 146.933 97.867V102.684C146.933 103.689 146.139 104.536 145.08 104.536Z" fill="white"/>
</g>
<path fill-rule="evenodd" clip-rule="evenodd" d="M99.1373 89.0542C98.4441 89.0542 97.8405 89.6578 97.8405 90.351C97.8405 90.7164 97.5443 91.0126 97.1789 91.0126C96.8135 91.0126 96.5173 90.7164 96.5173 90.351C96.5173 88.927 97.7133 87.731 99.1373 87.731C99.5027 87.731 99.7989 88.0272 99.7989 88.3926C99.7989 88.758 99.5027 89.0542 99.1373 89.0542Z" fill="#1E247E"/>
<path d="M164.188 214.154L111.576 170.063C109.3 168.158 109.035 164.823 110.941 162.547L173.398 88.075C175.303 85.799 178.638 85.5344 180.914 87.4399L233.526 131.53C235.802 133.436 236.066 136.77 234.161 139.046L171.704 213.518C169.798 215.741 166.464 216.059 164.188 214.154Z" fill="#79CAA1"/>
<path fill-rule="evenodd" clip-rule="evenodd" d="M179.894 88.6569C178.277 87.3041 175.947 87.5039 174.615 89.0943L174.614 89.0954L112.158 163.566C112.158 163.567 112.158 163.567 112.157 163.567M165.208 212.936C165.208 212.936 165.207 212.936 165.207 212.936L112.595 168.846C111.005 167.514 110.805 165.184 112.157 163.567M165.208 212.936C166.803 214.272 169.143 214.059 170.493 212.491C170.495 212.489 170.497 212.487 170.498 212.485L232.943 138.027C232.944 138.027 232.944 138.026 232.944 138.026M179.894 88.6569C179.894 88.6571 179.894 88.6572 179.894 88.6574L232.506 132.747L232.506 132.748C234.097 134.079 234.297 136.409 232.944 138.026M172.18 87.0557C174.659 84.0944 178.998 83.7648 181.933 86.2223L234.545 130.313C234.545 130.313 234.546 130.313 234.546 130.313C237.506 132.793 237.836 137.13 235.378 140.066L235.378 140.067L172.915 214.545L172.91 214.552C170.448 217.424 166.123 217.844 163.169 215.371L163.168 215.371L110.556 171.281C110.556 171.28 110.556 171.28 110.556 171.28C107.595 168.801 107.266 164.463 109.723 161.528L109.724 161.527L172.18 87.0557Z" fill="#1E247E"/>
<path fill-rule="evenodd" clip-rule="evenodd" d="M179.051 92.2801C178.542 91.8391 177.742 91.8982 177.285 92.4251C177.046 92.7013 176.628 92.7311 176.352 92.4918C176.076 92.2525 176.046 91.8346 176.285 91.5585C177.205 90.4975 178.839 90.3449 179.918 91.2801C180.194 91.5194 180.224 91.9373 179.985 92.2134C179.745 92.4895 179.327 92.5194 179.051 92.2801Z" fill="#1E247E"/>
<path d="M149.156 234.214L120.045 172.074C118.774 169.428 119.939 166.252 122.585 164.982L210.607 123.75C213.254 122.479 216.43 123.644 217.7 126.29L246.811 188.43C248.081 191.076 246.917 194.252 244.271 195.522L156.248 236.755C153.602 238.025 150.426 236.86 149.156 234.214Z" fill="#DA867D"/>
<path fill-rule="evenodd" clip-rule="evenodd" d="M216.265 126.971C215.361 125.097 213.126 124.302 211.294 125.181L211.288 125.184L123.272 166.413C123.27 166.414 123.268 166.415 123.266 166.416C121.392 167.32 120.597 169.556 121.476 171.387L121.479 171.394L150.587 233.527C150.588 233.529 150.589 233.531 150.59 233.533C151.494 235.407 153.73 236.202 155.561 235.323L155.568 235.32L243.583 194.091C243.585 194.09 243.587 194.089 243.589 194.088C245.464 193.184 246.259 190.948 245.38 189.117L245.376 189.11L216.268 126.977C216.267 126.975 216.266 126.973 216.265 126.971ZM209.927 122.315C213.385 120.66 217.494 122.191 219.131 125.603L219.135 125.61L248.243 187.743C248.244 187.745 248.245 187.747 248.246 187.749C249.901 191.207 248.37 195.316 244.958 196.954L244.951 196.957L156.936 238.186C156.933 238.187 156.931 238.188 156.929 238.189C153.471 239.845 149.362 238.313 147.724 234.901L147.721 234.894L118.613 172.762C118.612 172.759 118.611 172.757 118.61 172.754C116.954 169.296 118.486 165.188 121.898 163.55L121.905 163.547L209.92 122.318C209.922 122.317 209.925 122.316 209.927 122.315Z" fill="#1E247E"/>
<g opacity="0.3">
<path d="M207.167 186.736L190.229 150.638C189.806 149.738 190.176 148.627 191.129 148.203L195.469 146.139C196.369 145.715 197.481 146.086 197.904 147.039L214.842 183.137C215.265 184.036 214.895 185.148 213.942 185.571L209.602 187.636C208.702 188.059 207.59 187.636 207.167 186.736Z" fill="white"/>
<path d="M219.076 181.125L202.191 145.027C201.768 144.128 202.138 143.016 203.091 142.593L207.431 140.528C208.331 140.105 209.443 140.475 209.866 141.428L226.804 177.526C227.227 178.426 226.857 179.537 225.904 179.961L221.564 182.025C220.611 182.449 219.499 182.078 219.076 181.125Z" fill="white"/>
</g>
<path fill-rule="evenodd" clip-rule="evenodd" d="M213.291 130.014C212.969 129.335 212.197 129.058 211.526 129.376C211.195 129.532 210.801 129.391 210.644 129.061C210.488 128.731 210.629 128.336 210.959 128.18C212.299 127.545 213.856 128.116 214.487 129.447C214.643 129.778 214.502 130.172 214.172 130.329C213.842 130.485 213.447 130.344 213.291 130.014Z" fill="#1E247E"/>
<path fill-rule="evenodd" clip-rule="evenodd" d="M218.705 247.764C218.705 246.887 219.416 246.176 220.293 246.176H248.24C249.117 246.176 249.828 246.887 249.828 247.764C249.828 248.641 249.117 249.352 248.24 249.352H220.293C219.416 249.352 218.705 248.641 218.705 247.764Z" fill="#1E247E"/>
<path fill-rule="evenodd" clip-rule="evenodd" d="M40.8088 247.764C40.8088 246.887 41.5197 246.176 42.3967 246.176H211.242C212.119 246.176 212.83 246.887 212.83 247.764C212.83 248.641 212.119 249.352 211.242 249.352H42.3967C41.5197 249.352 40.8088 248.641 40.8088 247.764Z" fill="#1E247E"/>
<path fill-rule="evenodd" clip-rule="evenodd" d="M18.3666 247.764C18.3666 246.887 19.0775 246.176 19.9545 246.176H33.7691C34.6461 246.176 35.357 246.887 35.357 247.764C35.357 248.641 34.6461 249.352 33.7691 249.352H19.9545C19.0775 249.352 18.3666 248.641 18.3666 247.764Z" fill="#1E247E"/>
<path d="M210.078 160.8V231.409C210.078 240.46 202.721 247.817 193.67 247.817H76.5892C67.5383 247.817 60.181 240.46 60.181 231.409V142.91C60.181 131.636 69.3379 122.479 80.6119 122.479H128.037C134.283 122.479 140.158 125.338 144.022 130.207L150.426 138.252C152.12 140.37 154.713 141.64 157.466 141.64H190.917C201.503 141.64 210.078 150.214 210.078 160.8Z" fill="white"/>
<path fill-rule="evenodd" clip-rule="evenodd" d="M80.6119 124.067C70.2148 124.067 61.7689 132.513 61.7689 142.91V231.409C61.7689 239.583 68.4152 246.229 76.5892 246.229H193.67C201.844 246.229 208.49 239.583 208.49 231.409V160.8C208.49 151.091 200.626 143.228 190.917 143.228H157.466C154.226 143.228 151.178 141.734 149.186 139.244L142.778 131.194C139.214 126.702 133.796 124.067 128.037 124.067H80.6119ZM58.5931 142.91C58.5931 130.759 68.4609 120.891 80.6119 120.891H128.037C134.769 120.891 141.102 123.973 145.266 129.22L151.666 137.26C151.666 137.261 151.667 137.261 151.667 137.262C153.063 139.006 155.202 140.052 157.466 140.052H190.917C202.38 140.052 211.666 149.337 211.666 160.8V231.409C211.666 241.337 203.598 249.405 193.67 249.405H76.5892C66.6613 249.405 58.5931 241.337 58.5931 231.409V142.91Z" fill="#1E247E"/>
<path d="M111.735 147.145C113.401 147.145 114.752 145.794 114.752 144.128C114.752 142.461 113.401 141.111 111.735 141.111C110.068 141.111 108.718 142.461 108.718 144.128C108.718 145.794 110.068 147.145 111.735 147.145Z" fill="#DBE7FE"/>
<path fill-rule="evenodd" clip-rule="evenodd" d="M111.735 142.434C110.799 142.434 110.041 143.192 110.041 144.128C110.041 145.063 110.799 145.821 111.735 145.821C112.67 145.821 113.428 145.063 113.428 144.128C113.428 143.192 112.67 142.434 111.735 142.434ZM107.394 144.128C107.394 141.73 109.337 139.787 111.735 139.787C114.132 139.787 116.075 141.73 116.075 144.128C116.075 146.525 114.132 148.468 111.735 148.468C109.337 148.468 107.394 146.525 107.394 144.128Z" fill="#1E247E"/>
<path d="M97.9728 147.145C99.639 147.145 100.99 145.794 100.99 144.128C100.99 142.461 99.639 141.111 97.9728 141.111C96.3066 141.111 94.9558 142.461 94.9558 144.128C94.9558 145.794 96.3066 147.145 97.9728 147.145Z" fill="#DBE7FE"/>
<path fill-rule="evenodd" clip-rule="evenodd" d="M97.9728 142.434C97.0374 142.434 96.2791 143.192 96.2791 144.128C96.2791 145.063 97.0374 145.821 97.9728 145.821C98.9082 145.821 99.6666 145.063 99.6666 144.128C99.6666 143.192 98.9082 142.434 97.9728 142.434ZM93.6326 144.128C93.6326 141.73 95.5758 139.787 97.9728 139.787C100.37 139.787 102.313 141.73 102.313 144.128C102.313 146.525 100.37 148.468 97.9728 148.468C95.5758 148.468 93.6326 146.525 93.6326 144.128Z" fill="#1E247E"/>
<path d="M84.264 147.145C85.9302 147.145 87.281 145.794 87.281 144.128C87.281 142.461 85.9302 141.111 84.264 141.111C82.5978 141.111 81.247 142.461 81.247 144.128C81.247 145.794 82.5978 147.145 84.264 147.145Z" fill="#DBE7FE"/>
<path fill-rule="evenodd" clip-rule="evenodd" d="M84.264 142.434C83.3286 142.434 82.5703 143.192 82.5703 144.128C82.5703 145.063 83.3286 145.821 84.264 145.821C85.1994 145.821 85.9577 145.063 85.9577 144.128C85.9577 143.192 85.1994 142.434 84.264 142.434ZM79.9238 144.128C79.9238 141.73 81.867 139.787 84.264 139.787C86.661 139.787 88.6042 141.73 88.6042 144.128C88.6042 146.525 86.661 148.468 84.264 148.468C81.867 148.468 79.9238 146.525 79.9238 144.128Z" fill="#1E247E"/>
<path fill-rule="evenodd" clip-rule="evenodd" d="M120.421 173.469C120.645 173.18 121.061 173.127 121.35 173.351L125.584 176.633C125.873 176.857 125.925 177.272 125.702 177.561C125.478 177.85 125.062 177.902 124.773 177.679L120.539 174.397C120.25 174.173 120.198 173.758 120.421 173.469Z" fill="#1E247E"/>
<path fill-rule="evenodd" clip-rule="evenodd" d="M120.42 169.395C120.642 169.106 121.058 169.051 121.348 169.274L129.816 175.784C130.106 176.007 130.16 176.422 129.938 176.712C129.715 177.002 129.3 177.056 129.01 176.833L120.541 170.323C120.251 170.1 120.197 169.685 120.42 169.395Z" fill="#1E247E"/>
<path fill-rule="evenodd" clip-rule="evenodd" d="M126.561 169.976C126.784 169.687 127.2 169.634 127.489 169.857L129.818 171.657C130.107 171.88 130.16 172.296 129.937 172.585C129.713 172.874 129.298 172.927 129.008 172.704L126.68 170.904C126.39 170.681 126.337 170.265 126.561 169.976Z" fill="#1E247E"/>
<path fill-rule="evenodd" clip-rule="evenodd" d="M194.44 149.788C194.559 149.366 194.997 149.12 195.42 149.238C199.09 150.271 201.959 153.308 202.706 157.101C202.79 157.531 202.51 157.948 202.08 158.033C201.65 158.118 201.232 157.838 201.148 157.408C200.519 154.213 198.094 151.64 194.99 150.767C194.568 150.648 194.322 150.21 194.44 149.788Z" fill="#1E247E"/>
<path fill-rule="evenodd" clip-rule="evenodd" d="M201.927 174.88C202.365 174.88 202.721 175.235 202.721 175.674V192.982C202.721 193.42 202.365 193.776 201.927 193.776C201.488 193.776 201.133 193.42 201.133 192.982V175.674C201.133 175.235 201.488 174.88 201.927 174.88Z" fill="#1E247E"/>
<path fill-rule="evenodd" clip-rule="evenodd" d="M201.927 169.322C202.365 169.322 202.721 169.678 202.721 170.116V172.392C202.721 172.83 202.365 173.186 201.927 173.186C201.488 173.186 201.133 172.83 201.133 172.392V170.116C201.133 169.678 201.488 169.322 201.927 169.322Z" fill="#1E247E"/>
<path d="M130.207 225.745H77.2773C75.8482 225.745 74.6838 224.581 74.6838 223.152V194.57C74.6838 193.14 75.8482 191.976 77.2773 191.976H130.207C131.636 191.976 132.801 193.14 132.801 194.57V223.152C132.801 224.581 131.636 225.745 130.207 225.745Z" fill="#F2F3F3"/>
<path d="M99.6136 185.624H75.8482C75.0013 185.624 74.3132 184.936 74.3132 184.089V169.005C74.3132 168.158 75.0013 167.47 75.8482 167.47H99.6136C100.46 167.47 101.149 168.158 101.149 169.005V184.089C101.202 184.883 100.513 185.624 99.6136 185.624Z" fill="#F2F3F3"/>
<path fill-rule="evenodd" clip-rule="evenodd" d="M197.125 66.383C197.442 67.3559 196.909 68.4012 195.937 68.7177L191.543 70.1468C190.57 70.4633 189.525 69.9312 189.209 68.9582C188.892 67.9853 189.424 66.94 190.397 66.6235L194.79 65.1944C195.763 64.8779 196.809 65.41 197.125 66.383Z" fill="white"/>
<path fill-rule="evenodd" clip-rule="evenodd" d="M191.683 59.3362C192.442 60.0223 192.501 61.1938 191.815 61.9527L188.322 65.8166C187.636 66.5755 186.464 66.6345 185.705 65.9484C184.946 65.2622 184.887 64.0907 185.573 63.3318L189.067 59.4679C189.753 58.709 190.924 58.65 191.683 59.3362Z" fill="white"/>
<path fill-rule="evenodd" clip-rule="evenodd" d="M183.29 54.7475C184.303 54.8907 185.008 55.828 184.865 56.841L184.177 61.7106C184.034 62.7236 183.097 63.4288 182.084 63.2857C181.071 63.1425 180.365 62.2052 180.508 61.1922L181.197 56.3226C181.34 55.3096 182.277 54.6044 183.29 54.7475Z" fill="white"/>
<path fill-rule="evenodd" clip-rule="evenodd" d="M52.4215 84.1971C52.5754 83.1856 53.5202 82.4904 54.5316 82.6443L59.4012 83.3853C60.4127 83.5393 61.1078 84.484 60.9539 85.4955C60.8 86.507 59.8553 87.2022 58.8438 87.0482L53.9742 86.3072C52.9628 86.1533 52.2676 85.2086 52.4215 84.1971Z" fill="white"/>
<path fill-rule="evenodd" clip-rule="evenodd" d="M57.0602 75.8761C57.7464 75.1172 58.9179 75.0582 59.6768 75.7444L63.5407 79.2377C64.2996 79.9239 64.3586 81.0954 63.6724 81.8543C62.9863 82.6132 61.8148 82.6722 61.0559 81.9861L57.192 78.4927C56.4331 77.8066 56.3741 76.6351 57.0602 75.8761Z" fill="white"/>
<path fill-rule="evenodd" clip-rule="evenodd" d="M64.1793 70.4812C65.1556 70.1754 66.195 70.7189 66.5009 71.6953L67.877 76.0884C68.1829 77.0648 67.6393 78.1042 66.663 78.41C65.6866 78.7159 64.6472 78.1723 64.3414 77.196L62.9652 72.8028C62.6594 71.8265 63.2029 70.787 64.1793 70.4812Z" fill="white"/>
</svg>
